/* XPM */
static char *_f19215870a24400d8bd66f1df78e2c0yIyko4C8Fc5hEWvb[] = {
/* columns rows colors chars-per-pixel */
"48 48 46 1 ",
"  c #B7BE94",
". c #B8BC9D",
"X c #BABEA6",
"o c #BBBFA9",
"O c #BFC09B",
"+ c #BCC2A5",
"@ c #BDC1AA",
"# c #C2C39F",
"$ c #C2C6A4",
"% c #C8C7A6",
"& c #C3C9A7",
"* c #C9CAA7",
"= c #C3C5AC",
"- c #C8C7AF",
"; c #C6C9AD",
": c #CACAAE",
"> c #D0CFAF",
", c #C6C6B1",
"< c #C6C9B0",
"1 c #CCCDB3",
"2 c #CFCFBA",
"3 c #D1CEB4",
"4 c #D0CFBD",
"5 c #CED1B4",
"6 c #CFD1B8",
"7 c #D3D2B6",
"8 c #D8D4B7",
"9 c #D4D3BB",
"0 c #D9D6BC",
"q c #D7D9BD",
"w c #DCD9BE",
"e c #D7D6C0",
"r c #D9D7C1",
"t c #DDDBC3",
"y c #DFDDC8",
"u c #E1DEC5",
"i c #E1DFC9",
"p c #E3E0C7",
"a c #E5E2CC",
"s c #E8E5CF",
"d c #E7E5D1",
"f c #E9E6D1",
"g c #ECEAD5",
"h c #EEECD9",
"j c #F1EEDB",
"k c #F2F0DE",
/* pixels */
"jjkkkkkjkkkkkkjjjjjjjhhgghhhgggdddddyeyeeeeeeoee",
"jjkjjkkjjkjkkkjjjjjghhghhghhghhdddyyyeeeeee2eeee",
"jjjhjjjkjkkjkjjjjhghjggggghhhhhddayyyyeeeee1eoeo",
"hhhjjjjjjkjjkjjjhhhggggggggghdhddayyeeeeeee6e,ee",
"hhhjjjhjjjjjjjhhghggggggdhggdddddytyteeeeee62eee",
"ghhhhhhjjjjjjjggjggggggghdddddddaytqeeee2e6e22e,",
"ghjhhghhjgjjgjghghggssgsddddddyyytyqeee66e6666ee",
"hgghghhggjgggjghghggsgssdddddddyyeytyee6e6669e2e",
"hjggggggggggghgggggdfdffdddddyyyyeetee96e626e6ee",
"jgjggggggggghggggggggggfddyddyyyytteeeeee66999ee",
"ggggssssgsggggggggfddddfhddddidyytteteee6e6eeeet",
"gggsgssssgggggggfgggdggfddddddyyyyytyeeeee66eqee",
"gsssssssssggggghggdgfgddddddddiiiyytteeyee6eqq9e",
"ggssspssssggsggghggfgffgfddddiddiyiytteq9669qq99",
"ssssssssssssggsggggggfgfgfdddiiiyyyyyeeqe6656695",
"sssssppssgsgsssgfffdgfggffdddddiayayyttee9655569",
"fsfsisssssasifssfdddfffddddsidiaaiaiyttee9666666",
"fsffgffassiasissddddsfdssddiaiaiiiyyyyr96996<<59",
"ffffsfsssaiiisssdasasiiiidsiaiaaiiityeee6661<216",
"sgfffsssisssiiaaaappiiiiaiiddidaiiyire96661<<,12",
"ssgssssssssiiiaiiuuttuuuaiidadiaiiytte961<<11122",
"ggsgsssssssauuuutttr0rruiaaaiiiipyte965<<@<<@2<2",
"ssgsssssssaiuuuutwq0rtuuiiiiiiiiyte91,<<@<<1<2<<",
"sssssssspssiuuuutq000rruiiiiiruitte6<=@@@@@@<<<2",
"ssgspssspsiiuuuw008e880uuiiiuurut091,=@ooo@@@,,2",
"ssssssspsppppupw0099340ruuuururre991,,@@X+@@@@@<",
"ssssssspspusspuuu8933e00uruuttrr99931<,@@@oo@,<1",
"ppsssspspsupuuupue03488u0uurreee999411=@@@o@,@<1",
"pspssspssuuuiuuuuw00880rt0rte9009992<5:&X++@@<<<",
"ppssssspuupsiuuuuuu048e00r0r0e0r92111<@&+X@@=<<<",
"ppsspsspspiuuiuuuu09330800t099r09955<1&&@+@;;<;;",
"ppppsssspssuuiiuuu004333800898tr961<15:&@;<;;;55",
"upppppppsssppppputww7333337780uu4383575:::<;<115",
"wwwupppsspppspppuwww88413337430tr004595::5<15515",
"wwwpppppppssppppuww089811137980rtw037755:;555555",
"wwwwpwpppspppppputwwr883>1:1340erwrr755:5:555551",
"88wwwwwpppppspppuwwwr8033331390ewwww975517556555",
"8www8pwwppppppppwuwtwww3773334408ww9875591575555",
"888w88ppwwppppppuwwuruwww88443338008995515717775",
"8888wpwwwwpwpppwutwwtwwtw88977399989555:11575111",
">888ww08wupuupwpwwuuwwwtw9980899qqq77131:1171111",
"%>>3788888ww88wwwwwutwwrw0888898qq87535:1-:::;;;",
":>>3>888www888www0wruww008073390wq75:>:11--:1==*",
"::3>7>*7888888ww0000wuw00903113388>1>:::==-===::",
":>-3>>#>8888ww8w0000wwq088973333>7>:;:=-=-1==:1;",
">::37*#78888ww8w8000wttw087333837>1::*;=-=-::11,",
">:3>:#O*888888889808wwt0897333335>1&$===%=1:-=1,",
"%%>:*# O:7>888880888wwt09893333>>::&=$=$:.+1:11="
};
