/* XPM */
static char *eca13d6a15994a33d3506fc2407aeec2YwrUkRLFqV6gWGaC[] = {
/* columns rows colors chars-per-pixel */
"32 32 61 1 ",
"  c None",
". c #060201",
"X c #070604",
"o c #0C0603",
"O c #0E0805",
"+ c #000F0F",
"@ c #0F0E0B",
"# c #100906",
"$ c #160B06",
"% c #190F0B",
"& c #1D0F08",
"* c #11100E",
"= c #1F130E",
"- c #1F140E",
"; c #000D10",
": c #001212",
"> c #001619",
", c #00181D",
"< c #001A1D",
"1 c #311C0F",
"2 c #221711",
"3 c #271A15",
"4 c #2B1D16",
"5 c #31221A",
"6 c #36261E",
"7 c #00272C",
"8 c #002F35",
"9 c #003035",
"0 c #00363F",
"q c #292F29",
"w c #362720",
"e c #362820",
"r c #43332A",
"t c #443228",
"y c #4B3A31",
"u c #4E3C32",
"i c #004B51",
"p c #00515A",
"a c #00525C",
"s c #005661",
"d c #006974",
"f c #5E4B40",
"g c #6C594E",
"h c #756358",
"j c #978376",
"k c #0072A5",
"l c #00838F",
"z c #39939F",
"x c #00A9B3",
"c c #00B7FF",
"v c #00D0FF",
"b c #39E4FF",
"n c #3AECFF",
"m c #39FFFF",
"M c #62F3FF",
"N c #B89C8A",
"B c #83FFFF",
"V c #AFFFFF",
"C c #B1F9FF",
"Z c #D9FFFF",
"A c #FBFFFF",
/* pixels */
"                                ",
"                                ",
"                                ",
"                                ",
"                                ",
"                                ",
"                999             ",
"     9999&&&   9vMC9&&          ",
"    ;avMCAiN&o>dbvMijN&         ",
"    >0avMMiNjh20dvvihj&         ",
"     >,0axvijjy%0dmifhj&        ",
"     o2,,0axijhw%pxifhhj&&9     ",
"     o22w7,81fhh%2pdiqhhhiC9    ",
"     o2rhj1hiffh44Xpp8ffriCM9   ",
"     .24jiCAMii7f4===1f5iCMc>   ",
"    >#%6giMMvmxli1tt555iVMl;    ",
"   >Z7%4:vmvxl0>ftt155MMvl;     ",
"   >n72%:dxla0,ftt1t5Mmca@.     ",
"   >cn7#%,0z0,ft5vhr5vaa@#2o    ",
"   ;lc7#%2;0*rt5vifria0,#Bcl>   ",
"  >00l7+22#,lcvvihf3,0,2ncls>   ",
"   >;07n72$#7ll7hww#$72ncl;;    ",
"     ;lnZ72#%+,uyw%#7ccl;;      ",
"     ;acn7-2%=3$ue%7kaa;        ",
"     ;0ac$OO2%%%$2,0a;>         ",
"      ;0aooo#22ooo;>>           ",
"       ;;   ooo                 ",
"                                ",
"                                ",
"                                ",
"                                ",
"                                "
};
