/* XPM */
static char *_86019ba0a5d44699fcc72d3a4fed993rR8T64x5ULaMix8c[] = {
/* columns rows colors chars-per-pixel */
"48 48 195 2 ",
"   c black",
".  c #160000",
"X  c #3C0000",
"o  c #3C0900",
"O  c #3B1500",
"+  c #322913",
"@  c #3D3424",
"#  c #3C372C",
"$  c #3B3832",
"%  c #420900",
"&  c #441600",
"*  c #462807",
"=  c #542C00",
"-  c #603B00",
";  c #413A2B",
":  c #443D34",
">  c #6C4A1C",
",  c #464031",
"<  c #4A4335",
"1  c #4C463A",
"2  c #4F493A",
"3  c #514B3B",
"4  c #6D4D25",
"5  c #70502D",
"6  c #6B4C30",
"7  c #6A4E3A",
"8  c #6E523D",
"9  c #74563D",
"0  c #77593A",
"q  c #7F613B",
"w  c #4E4A42",
"e  c #575245",
"r  c #56524B",
"t  c #59554C",
"y  c #595552",
"u  c #5E5B54",
"i  c #5E5C59",
"p  c #6F5341",
"a  c #735642",
"s  c #755943",
"d  c #7A5D45",
"f  c #755E4C",
"g  c #7A5E4A",
"h  c #615D55",
"j  c #625F5A",
"k  c #796244",
"l  c #7E634B",
"z  c #66635B",
"x  c #69665D",
"c  c #6B685F",
"v  c #7C6553",
"b  c #746C5C",
"n  c #7A6D5C",
"m  c #78705E",
"M  c #666562",
"N  c #6A6761",
"B  c #6D6B63",
"V  c #6F6E69",
"C  c #716E65",
"Z  c #716E69",
"A  c #747166",
"S  c #7B7463",
"D  c #75736B",
"F  c #79766D",
"G  c #7B796E",
"H  c #696E78",
"J  c #757571",
"K  c #797771",
"L  c #7D7B73",
"P  c #72757A",
"I  c #7C7C7A",
"U  c #85623F",
"Y  c #805F46",
"T  c #836546",
"R  c #83654D",
"E  c #8A6A4C",
"W  c #866750",
"Q  c #856A53",
"!  c #8B6D54",
"~  c #856D5A",
"^  c #8C6F59",
"/  c #8D7156",
"(  c #85715C",
")  c #8C735C",
"_  c #927454",
"`  c #92755C",
"'  c #95795E",
"]  c #987859",
"[  c #9A7B5F",
"{  c #857365",
"}  c #8D7561",
"|  c #8E7861",
" . c #917762",
".. c #947B63",
"X. c #9B7D63",
"o. c #947E69",
"O. c #997F6A",
"+. c #807E75",
"@. c #817F78",
"#. c #9D8166",
"$. c #96816C",
"%. c #9B836C",
"&. c #9F886F",
"*. c #83827B",
"=. c #88827E",
"-. c #9C8671",
";. c #9E8973",
":. c #938678",
">. c #A18366",
",. c #A2866B",
"<. c #A5896D",
"1. c #A98B6E",
"2. c #A9936F",
"3. c #A38B74",
"4. c #A98F74",
"5. c #A38E79",
"6. c #A98F78",
"7. c #A59077",
"8. c #AA9276",
"9. c #AE9976",
"0. c #A6917B",
"q. c #AB947C",
"w. c #AE9C7C",
"e. c #B29B76",
"r. c #B0967D",
"t. c #B29D7C",
"y. c #B7A27E",
"u. c #7F8182",
"i. c #848584",
"p. c #8A8A87",
"a. c #878888",
"s. c #98958B",
"d. c #9D948C",
"f. c #8C8F90",
"g. c #939594",
"h. c #9A9C9A",
"j. c #A89785",
"k. c #B29B82",
"l. c #AA9E94",
"z. c #9FA19F",
"x. c #AFA188",
"c. c #B5A282",
"v. c #B9A683",
"b. c #BBA986",
"n. c #B9A588",
"m. c #BEAB8A",
"M. c #A9A197",
"N. c #ACA49B",
"B. c #B1A69D",
"V. c #999EA1",
"C. c #9DA1A5",
"Z. c #A2A5A3",
"A. c #A9A8A6",
"S. c #ABADAD",
"D. c #B3ABA3",
"F. c #B3AEAB",
"G. c #ADB0AD",
"H. c #B4B1AE",
"J. c #ABAFB0",
"K. c #AFB3B3",
"L. c #B3B4B3",
"P. c #B7B6B5",
"I. c #B5B9BB",
"U. c #BABCBC",
"Y. c #C0AE8D",
"T. c #C1B08E",
"R. c #C1AF90",
"E. c #C4B394",
"W. c #C8B797",
"Q. c #CCBC9B",
"!. c #C1BEBB",
"~. c #BABEC1",
"^. c #BFC3C4",
"/. c #C4C4C4",
"(. c #C2C6C9",
"). c #C5CACC",
"_. c #CACCCD",
"`. c #C7CDD0",
"'. c #CACED1",
"]. c #CED3D5",
"[. c #D1D5D7",
"{. c #D2D6DA",
"}. c #D5DADD",
"|. c #D8DDDF",
" X c #D5DBE0",
".X c #D7DDE2",
"XX c #D9DEE2",
"oX c #D8DFE5",
"OX c #DCE2E5",
"+X c #DEE5E9",
"@X c #DEE5EA",
"#X c #E0E4E7",
"$X c #E1E6EA",
"%X c #E2E9ED",
"&X c #E6EBF0",
/* pixels */
"..X...O.#.%.,.3.1.6.6.6.k.6.6.r.6.6.6.1.X.O.l.D.H.B.d._ X.,.,.O.%.%.O.O.%.$.o.-.O.:.O.O.O.o.o.o.",
"X.O.#.,.,.3.3.4.4.6.k.r.k.k.k.k.r.r.r.O.B.'..X.X.XXX{.!.5.` -.%.%.&.&.&.-.&.3.;.3.;.;.;.:.o.v f ",
"#.>.,.3.4.r.q.r.r.r.r.r.k.k.k.k.r.r.1.!.oXoX X.X X X X.X[.l./ O.$.#.O.%.%.%.%.3.3.3.;.;.;.-.:.O.",
"..O.#.<.1.8.r.k.k.k.r.4.<.,.O.4.1.X./.#X.X.XoXoX#XoX.X X.X.Xl.[ 3.,.,.#.3.3.5.4.3.3.d.;.O.-.-.-.",
"! !  . .' X.O.#.X.O.O.X.X...X.O.E P.@XXXXXOX.XI.S.).$XXX.XoX.Xj.#.5.7.q.k.q.0.q.j.3.5.5.5.5.O.3.",
"~ R R l g g 8 7 7 9 Y Y W !  .E d.#XoXoX$X_.i . . + V.$X.X.XoX[.%.4.q.q.q.w.q.j.6.j.5.6.5.5.d.5.",
"Q Q R l a p 7 7 8 a s Y R ! R R ].@XoX$X'.$ + j x y   g.$XoXoX%XU.' 5.4.0.q.q.q.5.j.6.j.5.5.5.5.",
"l R W Q f p l R ! `  .] ..O.U F.$XoX$X Xi $ M V C z j . J.%XoXoXOXj.-.q.q.j.q.q.j.5.5.6.5.5.3.;.",
"l l d a a g R W ` X.O.1.1.X...|.@XOX@Xf.@ V B @.@.D j u : ].@XXX%X/.O.3.3.3.4.3.5.5.5.j.0.j.j.0.",
"a a a a g R ! ` ..X.X.>.4.] H.%X.X%X).$ D D V +.I K Z Z @ a.@XOX@XOXj./ O.O.O.O...O.<.3.3.4.4.5.",
"s l l Q ^ ' O.>.>.>.1.1.1...{.$XOX@Xu.y L D V L L D D I z + (.%XoX%XU._ -.-.3.5.4.3.<.;.,.-.&.%.",
"R Q /  .X.X.X.>.<.1.1.4.] l.$XoX&X^., J L J V @.+.F D *.L # i.%XXX+X.X&.-.4.0.0.q.3.,.%.%...| ) ",
" . .O.X.>.>.>.O.O.1.1.4.] !.&XOX&Xf.w J L J Z @.I D D *.*.z # ].@XOX%XB.$.5.7.q.q.q.q.q.q.5.3.;.",
"` X.X.X.,.<.<.4.1.1.1.X.X.#X#X%X Xi z I L Z Z *.@.F F *.*.L . Z.%XOX%X/._ ;.;.0.q.q.q.q.q.7.4.;.",
"^ / ..O.>.>.,.>.X.>.<.T d.#X#X&XI.w M I K D D +.K K F *.*.L 2 J OX+X@X}.$.$.%.%.&.&.,.&.&.%.%.$.",
"Q Q ! ^ ^ ^ ` ` ] ]  .> P.#XXX$Xf.r V F G Z z *.=.V V *.@.L c , ].%X@X@Xl.) o.) /  . . ...| ..| ",
"/ Q E / Q l E E ! ! Q 9 ].@X@X}.J z V K L V K.OX|.).*.+.*.D J @ G.%XOX&XL.k ( ( / ( ) ) | | ) | ",
"` #.#.#.#.#.` _ ! ! 0 S |.OX@X(.u V B I x G.).Z.I.J.`.J *.D F e p.%XOX%X`.k ( $.) ) $.) ) ' | ) ",
"` #.>.>.#.#.#.#.X.X.0 d.@X.X%XL.r J V L N ].C.V.I.u. Xf.A D F B h |.#X#X|.S ( ( ) #.#.$.) ) $.` ",
"#.#.#.#.<.2.>.>.#.#.q H.@XOX@Xg.j D B K Z ].^.(.].K.}.g.C D F L ; _.%XOX+X7.$.$.$.$.$.$.$.#.$.$.",
"#.#.#.#.#.#.#.#.>.#.q (.$XOXOXI N D N +.e ).C.P C.H }.J D D D *.@ I.%XOX%Xx.m $.$.$.-.&.-.&.$.$.",
"#.#.#.#.#.#.#.#.[ ` k ].@X@X].M V D N +.h C ].{.{.}.h.z L D D *.2 Z.%XOX%XH.#.&.&.&.&.&.&.&.&.&.",
") / / ` ' ' ' ' ' / n }.OX@X).u J Z N L A , u z.C.J w G +.D V *.e *.$XOX@X^.$.&.7.w.0.w.0.0.0.0.",
"#.#.#.` ' ` ) / ` l { OXOX$XI.y K D N L F u w < $ 1 D +.+.D A *.z F OXOX#X].( &.;.7.7.0.0.0.7.7.",
"#.#.#...' ` / / ^ 5 =.@XXX$XS.u K A V G L B u x B A D @.L D A *.V z |.OX+X[.$.$.;.&.7.7.7.&.&.%.",
"#.#.#.#...' ' `  .4 s.%X.X$XV.h L D B L L D B G L J D @.L D Z @.J r ].OXOX|.$.$.$.$.-.&.&.&.%.%.",
") ' ' ' [ ` ' ' ..> z.%XXX$Xg.h K D V G L D C G L D D *.@.D A @.G 3 _.@XXX|.:.$.$.$.&.-.$.$.$.$.",
"' ' ' ' ' ` ` `  .- A.%XXX@Xf.z J D B L +.D V L L F B F V N x L L 2 ^.@X|.OX:.v ( Q ) ) $.) ) ) ",
"] .. .] ' ' ` _ ` = K.%XOXOXa.x L D N L L D A +.L A I N.G.(.).i.G 1 ~.@X|.OXs.l $.( ) ) Q Q ) / ",
"` ' / / ! _ ^ ! ! & P.@XOXOXu.x G D B L G D C +.@.z z.{.].{.|.G.M 3 I.@X}.OXM./ $.$.%.#.%.%.$.$.",
"! R R / ! ! ^ ^ Q % I.@X.XOXi.N G D B L L F A +.L G e e ; P._.*.B < K.@X}.XXM./ $.#.#.&.&.#.%.&.",
"! W ! ` ^ ^ ` _ Q X U.@XOXOXI N L D N G G A A +.+.D e z t 3 r z G , G.OX}.XXM.) &.;.&.&.3.3.&.7.",
"! ! ^ ` ] ` ` ` R % ~.@XoXXX@.N K D B L G F A G G D z A z 3 e G G < G.OX}.XXB.#.7.7.k.k.k.k.k.k.",
"` ^ ` ` ] ] ` ` ^ % /.$X#XoX@.N F D B L G F m G G F A G A h c F F 2 G.OX}.|.D.#.7.7.7.9.q.7.q.j.",
"X.X.X.X.X.] [ X.W % /.$XOXoXP N G D C G G F B *.G S B F F c z F F 3 G.OX}.OXD.#.;.2.7.7.3.4.4.4.",
"X.X.X.X.X.>.X.X.W % /.$X#X.X@.N G A B G G D B G G A c F F c z A F 3 G.OX}.OXB./ $.%.&.&.<.<.3.3.",
"X.X.X.[ X.X.X.X.R % /.#XOX|.K N F A c G G A c G G D c F F B z F F 3 G.OX}.OXD.k o...O.O.O.%.<.<.",
"X.X.X.X.X.X.] ] g % _.#XOX|.J N F C c G G A C G G A c F F B z D G 3 G.OX}.OXZ.0 ^ ^ ` O...O.-.O.",
"X.X.X.X.X.>.X.>.g & _.#XOX XJ N F B x D F A B G G A x F S C x A F 3 Z.#X}.OXD.0 } ^  . .o.O.O.-.",
"] [ X.X.X.X.[ [ d o _.#XOX XZ N D B c D D B c F F A c F D C x D G 3 Z.OX}.#XD.q ~ { } } }  .o.o.",
"^ ^ / E E ! ! / 9 O _.oXOX{.J x D B c D F B c F D A c F S C c D F 2 M.OX|.OXG.0 { ~ ~ ~ { ^  . .",
"! ! W R R R R ^ s & _.@X#X{.Z M A B z D D C c D D A c D D A c D F 2 h.#X|.OXG.0 ~ Q Q ~ ^ { } } ",
"W W E R T Y T _ k * '.OXXX{.B M A C x F D A c D D A c F D A c A F 2 h.#X|.OXH.9 ~ ~ ~ ~ ^ } } } ",
"/ ! ! ! ^ _ ] ,.l O ].@X#X{.M M C B z A A c c D D c x F D A z D G 2 z.#X|.#XG.6 v v ~ ~ ^ ^ { } ",
"e.e.e.e.v.v.e.e.8.l U._.'.~.b b S m m S S m b S S m b S S A b S D 3 p.{.].|.H.k ( ( ( ( { { { ~ ",
"9.8.e.t.e.t.e.e.y.e.r.k.k.r.y.c.y.b.v.v.b.b.b.b.v.v.c.v.v.v.c.c.c.w.;.j.x.d.x.y.y.x.y.x.k.k.k.k.",
"t.e.t.e.9.t.t.y.y.b.E.W.W.W.m.c.v.b.Y.Y.m.m.b.c.b.b.y.b.m.Y.Y.Y.m.W.W.Q.Q.Q.E.m.b.b.v.c.n.n.v.k.",
"t.k.e.9.9.y.e.b.b.m.Y.Y.m.Y.c.t.y.v.b.Y.m.m.y.y.c.v.v.m.T.Y.Y.Y.m.m.W.m.W.D.m.n.c.c.c.k.k.c.k.k."
};
