/* XPM */
static char *_facf75426024cdda93d273c2458f44351t56eJyLHPYNfR2[] = {
/* columns rows colors chars-per-pixel */
"48 48 190 2 ",
"   c #172D35",
".  c #1A2E36",
"X  c #143035",
"o  c #1D3437",
"O  c #1D3A36",
"+  c #1E353A",
"@  c #1E3C3C",
"#  c #213D35",
"$  c #22373C",
"%  c #233C3B",
"&  c #2A3E3C",
"*  c #303D3F",
"=  c #1E493C",
"-  c #234336",
";  c #25433B",
":  c #2B443D",
">  c #27483B",
",  c #2C4B3D",
"<  c #31453D",
"1  c #334B3D",
"2  c #2E513F",
"3  c #34523E",
"4  c #3A543E",
"5  c #365B3E",
"6  c #3C5A3F",
"7  c #3B613F",
"8  c #2B3D40",
"9  c #2C4541",
"0  c #2E4A41",
"q  c #314743",
"w  c #334D43",
"e  c #3A4D43",
"r  c #364C49",
"t  c #355343",
"y  c #3A5444",
"u  c #365A42",
"i  c #3B5B45",
"p  c #375249",
"a  c #3B554A",
"s  c #3E5A4A",
"d  c #3D6245",
"f  c #3F624A",
"g  c #415544",
"h  c #425D44",
"j  c #4C5E46",
"k  c #41574C",
"l  c #435C4B",
"z  c #495E4D",
"x  c #445C52",
"c  c #495F53",
"v  c #436346",
"b  c #486141",
"n  c #426946",
"m  c #4C6945",
"M  c #44624C",
"N  c #4A634D",
"B  c #456A4A",
"V  c #4B6B4D",
"C  c #506547",
"Z  c #526C4C",
"A  c #4A7245",
"S  c #4D724D",
"D  c #4F784C",
"F  c #577745",
"G  c #52754E",
"H  c #547B4E",
"J  c #466251",
"K  c #4B6452",
"L  c #4D6B52",
"P  c #516653",
"I  c #596756",
"U  c #546B54",
"Y  c #5A6D56",
"T  c #556B5A",
"R  c #5B6D5C",
"E  c #4D7350",
"W  c #547353",
"Q  c #5B7355",
"!  c #567B52",
"~  c #5B7D55",
"^  c #55725A",
"/  c #5C725B",
"(  c #5C7B5B",
")  c #627757",
"_  c #61755D",
"`  c #69755C",
"'  c #637B5D",
"]  c #697E5F",
"[  c #5C7462",
"{  c #607660",
"}  c #657A63",
"|  c #6B7D63",
" . c #687D69",
".. c #717D64",
"X. c #727E69",
"o. c #59804F",
"O. c #5E8354",
"+. c #658656",
"@. c #64845A",
"#. c #6A835E",
"$. c #668264",
"%. c #6C8163",
"&. c #6B8867",
"*. c #6D836A",
"=. c #6D896D",
"-. c #728566",
";. c #738B65",
":. c #798966",
">. c #74846B",
",. c #79866B",
"<. c #748A6B",
"1. c #7A8C6C",
"2. c #7D9466",
"3. c #74906C",
"4. c #7B926A",
"5. c #6E8270",
"6. c #798771",
"7. c #768C72",
"8. c #7C8D72",
"9. c #779073",
"0. c #7B9373",
"q. c #7F9678",
"w. c #828D6E",
"e. c #83936E",
"r. c #818D72",
"t. c #839474",
"y. c #899574",
"u. c #859B75",
"i. c #8A9C75",
"p. c #84947A",
"a. c #8A967B",
"s. c #849A79",
"d. c #8D9C7C",
"f. c #929E7D",
"g. c #8CA17E",
"h. c #93A17E",
"j. c #9CA77C",
"k. c #8D9D81",
"l. c #929E82",
"z. c #94A283",
"x. c #99A584",
"c. c #94A884",
"v. c #9CAA85",
"b. c #96A38A",
"n. c #9BA589",
"m. c #9DAB8A",
"M. c #9EA992",
"N. c #A1AD86",
"B. c #A0A78C",
"V. c #A2AD8C",
"C. c #A8AE8C",
"Z. c #A5B186",
"A. c #A8B285",
"S. c #A5B18B",
"D. c #AAB48C",
"F. c #AEB88E",
"G. c #A4AD93",
"H. c #ABAF91",
"J. c #A4AC98",
"K. c #A6B293",
"L. c #ACB493",
"P. c #ADB993",
"I. c #ABB49A",
"U. c #AEB99B",
"Y. c #B3BB93",
"T. c #B9BE96",
"R. c #B1B79B",
"E. c #B3BB9D",
"W. c #B3B7A0",
"Q. c #B5BCA2",
"!. c #BABFA4",
"~. c #B7C09E",
"^. c #BAC199",
"/. c #BCC2A4",
"(. c #BEC8A7",
"). c #BEC3A9",
"_. c #C1C49E",
"`. c #C2C5A4",
"'. c #C5C9A5",
"]. c #C4C6AB",
"[. c #C6C8AC",
"{. c #CBCCAD",
"}. c #C7C9B1",
"|. c #CCCDB1",
" X c #D1CFB3",
".X c #CFD0B4",
"XX c #D4D2B6",
"oX c #D7D5B9",
"OX c #D9D7BB",
"+X c #DAD8BD",
/* pixels */
"{.|._.F._. X XXXoXXXXXoXoXoX+X+XOXXX X XXX|.[.].`.).].].B.`. X].[.{.].].}.).).Q.Q.W.W.U.I.I.I.W.",
"{.{.T.D.T.'.{.{.|.XXXX XoX+X+X+X+XXXXXXX X X{.`.!.].}.{.w.l.{.].[.}.}.{.|.}.].).!.Q.W.U.I.I.G. .",
"_. XT.F.Y.^._.j.^.XX X`.XXoXoX+XXX{.XX X X X X{.[.[.{.R.) B. X X}.|.}.|.|.}.{.(././.W.U.I.Q.n.*.",
"_._.Y.F.F.F.A.A.D.{.`.T.oXoXoXoXXX{. XXXXXXX XXX{.|.R.l.r.W. X].|.{.{.|..X].].).Q.Q.U.I.I.J.l.7.",
"j.F.F.C.A.F.A.A.D.^.L.T.oXXXXXOX'.T. XXXXXoXoXXX X XOX/.r.G.H.!.|.[.[.].].).).)./.I.I.J.I.b.q.9.",
"Z.C.Z.D.j.A.N.A.Z.P.P.Z._.'._.oX_.T. X+XoX{.OXoXXX!.B.-._ ,.x.[.|.[.].`.)./.Q.).(.I.I.I.M.I.k.L ",
"^.C.Z.N.i.N.C.N.v.Z.F.N.^.^.P.`.Y.Y.'.oX{._.{.OXXX[.8.R ` } a.[.|.[.)././.Q.U./.).W.J.I.U.J.} t ",
"Y.C.N.y.j.V.V.Z.Z.c.Z.Z.Z.A.Z.F.A.D.Y._._.Y.'.OXXX{.R.} Y } a.x.!.[./.~.Q.R.I.~.U.I.J.I.U.5.f x ",
"L.L.N.w.A.F.S.m.v.x.N.N.Z.Z.Z.Z.v.m.P.^.T.L.Y.'.[.P.t.Q >.6.p.R.].)./.m.U./.U.~.I.I.J.M.l.p.q.x ",
"Y.C.N.:.#.h.C.x.f.f.x.v.v.m.S.v.j.m.D.Y.Z.S.C.^.{.t.i } [ | G.a.P./.V.M z.U.P.U.I.K.J.M.J.M.k.[ ",
"y.e.y.:.:.e.f.x.d.d.z.m.N.Z.S.v.v.c.m.N.N.S.v.P.^.<.0 <.T l / / m./.b.= $.P.K.K.I.M.b.M.k.K 5.R ",
"j.A.f.-.h.j.f.h.f.h.x.v.v.m.S.m.z.f.c.v.v.m.z.m.v.E p Q / l %.l.E.P.[ 0 / G.U.K.P.c.b.M.b.b. .r ",
"B.w.C...Y ) ..y.i.l.l.B.N.S.S.m.x.h.v.v.v.c.k.c.u.N w M t | p.n.^.g.R r ^ K.U.K.K.c.k.c.U.p.u T ",
"f.C.f...' ` 1.x.n.f.d.n.V.L.S.m.n.n.x.x.m.m.m.v.} a l l s t.k.*.c.n.P a s m.I.c.S.k.k.g.k. .[ T ",
"B.w.C ) 1.-.] e.n.x.f.l.n.C.Z.S.m.S.C.z.n.m.S.h.U l x s s s s J *.p.T w J p.V.k.c.c.g.=.i [ P s ",
"C.x.X.I r.t.,.:.w.f.l.l.N.N.S.n.x.S.S.N.S.m.S.m.Q a k J N K s <.Q t ( J N *.3.9.q.q.g.q.9.m.9.f ",
"w.y.w.C _ f.x.j.a.l.l.f.m.x.V.z.x.m.n.S.S.G.x.%.= p a s h s l K ' l K c k _ #.q.0.q.s.9.9.9.=.^ ",
"P U ) Y _ Y } z.f.n.l.z.x.x.z.l.x.m.m.m.V.G.V.1.>.%.J a t a K K { I J Y Y <.3.s.0.*.0.*.J 0 p t ",
"..] i ..1.%.) %.` t.n.V.x.x.z.k.z.m.v.m.L.V.L.E.P./ i / p M / K B ~ ~ W p t a } 9.[ <.9.^ t J s ",
"r.d.t ` r.1.:.%.:.x.G.B.m.m.n.l.l.b.m.V.G.L.d.p.8.a w k a s U N V G ! O.! s ' u.5.=.9.=.[ J p f ",
",...X.z -._ N P %.;.x.B.B.n.n.l.l.n.G.D.V.G.G.) = w q 9 s a 6 G ! S S ~ O.O.( ^ 7.0.9.$.[ s E 0 ",
"..I ` j ) ] z P y.i.z.L.B.x.z.k.n.m.m.S.B.m.z./ t a 9 w N x B v D } ! S i v u *.s.7.=.=.[ [ 9.T ",
"w.w.w.j y %.-.P / f.L.H.B.B.a.-.n.m.V.Z.S.V.0.N p 9 t : w t N V D ( B V V o.O.u.q.*.*.[ [ J ^ f ",
"X.H.!.I s R ,.t.,.k.H.H.G.x.%.p l.G.V.V.K.m.m.%.9 w y w u s M i t 0 s V v D D O.3.7.&.@.$.u > 0 ",
"X.a.l.` z z q P -.] 1.B.G.x.N l k.S.v.m.V.m.%.p q w i t t q p s s B S d d B M f H ;.@.+.( M f f ",
"..) N P P l _ _ -.| | V.m.m.| l c.N.z.n.v.h.{ w 8 ; 9 q $ 9 s w d V d t t d i B n @.=.$.~ L J J ",
"..k 1 P ,./ P ,.h.c.h.V.g.p.a.R *.v.z.z.i.h.<.i p w 9 9 w t p r p i u u u i S V B D 3.3.$.E B B ",
"& g j P %.| } N %.:.d.m.:.B K k U h.n.d.<.s.-.a k w w 1 w i 0 p p @ p d V i d v V n +.&.$.[ ^ E ",
"z Q z e y P ,.` a u %.v.Q a l a W | <.s.<.2.Q a 1 w r 9 , 9 a J J 0 0 0 t 9 0 u s d ! ( ( $.( f ",
":.Y q q : 3 Y / Q Z ) 1.8.<.K c p l R [ #.;.#.B : : 9 9 x r 0 p t u d i B B p t s V } O.! o.E t ",
"| U j N z y y N U / ,.1.1.%.P P p | c.6.:.#.h M t , 8 q [ x 9 p 0 9 d B f D B d D D S G O.s 2 i ",
"l R N j N K Z v l 1 _ 9.t.' B a s _ 8.p.e.+.Q V w % 8 a T a x a > - 9 d 0 u d u f d d d d S V i ",
"4 ` R g g k R Q N Z _ <.t.U s q a T a T 7.1.#.h a : q 3 x s f s u u 9 - , 9 d d 0 t L E u V S t ",
"g k I g 1 s l l h / ,.0.8.N 3 a e K } U %.t.z p i : q 9 9 ; x s 0 + @ 9 + w d i K L V f f f p u ",
"g e I e : 1 j N Z l P -.' t y l l z  .6.:.u._ N l w w 9 q q J a 9 . > 0 ; , t 2 t d u s d B V f ",
"y 4 k 9 & , 3 3 N C U -.y p y w a p k R { :.Q p r t , 9 a a K E t , u : @ @ , 0 0 J f f K t d B ",
"N Z 1 < < : j m y C ] <.l , p a p R T <.p.;.Q y y : , q 8 p V E f d - + - 9 0 ; t ^ ^ L E M - u ",
"h G y < y 3 4 G Z G ( ' N l a w x T t [ d.4.N N t , q : w % d d u - . o @ t l l d L [ E L f 9 i ",
"N V e < 1 3 4 b N v v U U l y 1 x X.R s z %.-./ , q ; w K 9 P K a ;   o + ; t B B p f ^ O.E 0 > ",
"C h 1 : < 3 4 b y N s V 3 % t a % X.p.1.>.,.6./ : 1 q ; : @ P %.w % o > , , , g j t u u f D d 0 ",
"4 4 4 1 3 1 4 m h K k t s t p w k w P <.s.a.s.=.1 : : & e q c =.L O % % 8 p w @ = ; i s 0 t u ; ",
"1 g 4 e 1 4 y 6 b s l M l t w & l _ s ] p.8.:.^ , ; 9 r a ; p [ K 0 + $ 8 a a 9 l s E ( t = t u ",
"g 4 < < < 4 4 g 6 h s i x P w 9 X ,.:.) t.6.| N w : 9 r k q 9 a t 0 +   8 0 w ; w p U s u , > u ",
"4 3 1 < < 1 < 4 v h a 1 M K 9 r @ N %._ 1.8.X. .B w 9 w r 9 p i 9 o - 5 0 0 5 B p 9 u s t , > o ",
"< 4 < < 4 4 & < 4 v h w w N q 9 p l l K #.,.>.,.Y s 1 : w ; 1 a t 7 7 5 7 > - V s % 9 V u 9 > > ",
"< e 4 * & < 1 1 1 4 a w w l a 9 k ) U , l <.%.U a y 1 % 1 1 9 i d u 7 2 5 , 4 v @ @ , 0 p u - ; ",
"e g g * & : 3 4 y h i y t , y 9 w z N K 9 ] ' y , q w & : 1 k V d - X 3 5 , 3 y 7 A A @ t t > + ",
"g z 1 & < < 3 g 3 6 y q w p 0 1 w 1 q u i Q Y h 1 , ; 8 1 q l N 2 , - , 1 ; > # u F F @ u t % O "
};
