/* XPM */
static char *_0f611dc776541db88a5cdf5b307aa3aaRZMTEr0xVBS4cpu[] = {
/* columns rows colors chars-per-pixel */
"48 63 186 2 ",
"   c None",
".  c #1D0E04",
"X  c #1E1006",
"o  c #1F110C",
"O  c #221206",
"+  c #251509",
"@  c #29160A",
"#  c #2E1A0B",
"$  c #341D0C",
"%  c #3A1F0D",
"&  c #2A1B11",
"*  c #251617",
"=  c #311819",
"-  c #3B210F",
";  c #332112",
":  c #3D2C1C",
">  c #362416",
",  c #331E24",
"<  c #251A36",
"1  c #231721",
"2  c #382320",
"3  c #332823",
"4  c #3A382E",
"5  c #4A382D",
"6  c #463C36",
"7  c #33403B",
"8  c #4E433C",
"9  c #574235",
"0  c #281E4D",
"q  c #231C4B",
"w  c #251E53",
"e  c #2D1F5B",
"r  c #2B1E55",
"t  c #331E59",
"y  c #3C1E5D",
"u  c #272056",
"i  c #2B235C",
"p  c #3A2856",
"a  c #2E2662",
"s  c #2F2863",
"d  c #312A66",
"f  c #342C6A",
"g  c #352360",
"h  c #3C3375",
"j  c #3F367A",
"k  c #363074",
"l  c #501E46",
"z  c #4E1B44",
"x  c #4D2948",
"c  c #66255F",
"v  c #4D1E64",
"b  c #561F68",
"n  c #5A1F6A",
"m  c #501F66",
"M  c #641F6F",
"N  c #611E64",
"B  c #6E1F72",
"V  c #711F74",
"C  c #712B6E",
"Z  c #672071",
"A  c #722276",
"S  c #76237B",
"D  c #7A267D",
"F  c #7F357B",
"G  c #6F2869",
"H  c #3E7177",
"J  c #6A4D41",
"K  c #795356",
"L  c #725347",
"P  c #73655A",
"I  c #6D416E",
"U  c #714671",
"Y  c #842D7E",
"T  c #9A5F56",
"R  c #996D5F",
"E  c #934E6D",
"W  c #805E69",
"Q  c #994D7B",
"!  c #9D5875",
"~  c #846469",
"^  c #986A76",
"/  c #AA7C6D",
"(  c #A77666",
")  c #A76A78",
"_  c #AD7E70",
"`  c #A26962",
"'  c #94897E",
"]  c #AA8377",
"[  c #B4897D",
"{  c #B68679",
"}  c #B98C75",
"|  c #D6A669",
" . c #C6A07D",
".. c #3F2885",
"X. c #422A8C",
"o. c #472899",
"O. c #4A2B9B",
"+. c #452699",
"@. c #493790",
"#. c #7A2B84",
"$. c #632783",
"%. c #4C2CA1",
"&. c #4627A1",
"*. c #502FA5",
"=. c #5433AB",
"-. c #5235A4",
";. c #5937B1",
":. c #5C3AB5",
">. c #5837B6",
",. c #623EBC",
"<. c #3F7982",
"1. c #7A548A",
"2. c #735197",
"3. c #714EA2",
"4. c #6441BF",
"5. c #7854B1",
"6. c #623FC1",
"7. c #6C47CD",
"8. c #6E49CD",
"9. c #6743C3",
"0. c #714CCC",
"q. c #7A55C3",
"w. c #7A58C9",
"e. c #6C47D0",
"r. c #862C8A",
"t. c #892D8E",
"y. c #822A86",
"u. c #873287",
"i. c #8F3688",
"p. c #93368F",
"a. c #8D2F93",
"s. c #8F3293",
"d. c #913296",
"f. c #95349A",
"g. c #99369E",
"h. c #963993",
"j. c #9B36A0",
"k. c #835F9D",
"l. c #915388",
"z. c #946A95",
"x. c #AC7986",
"c. c #A5768A",
"v. c #B07C8B",
"b. c #AA6A85",
"n. c #835DBD",
"m. c #835DA3",
"M. c #8F68AD",
"N. c #9168B6",
"B. c #9068B3",
"V. c #3DA3BA",
"C. c #418A96",
"Z. c #4197A7",
"A. c #40B3CB",
"S. c #43BFDC",
"D. c #43C2DF",
"F. c #43C4E1",
"G. c #9B9692",
"H. c #938982",
"J. c #AC8F87",
"K. c #B28F85",
"L. c #BA9588",
"P. c #AE849E",
"I. c #A89F9C",
"U. c #AA9296",
"Y. c #B7999A",
"T. c #B08D90",
"R. c #B7A38E",
"E. c #A7A09D",
"W. c #BAAC9A",
"Q. c #ABA2A0",
"!. c #B5A7A7",
"~. c #BBAFB0",
"^. c #BDB6B5",
"/. c #C6A08D",
"(. c #D5B48E",
"). c #C2B3A3",
"_. c #C6B3B0",
"`. c #E1C496",
"'. c #CDC1BE",
"]. c #C9C6C6",
"[. c #C8C5C5",
"{. c #DDDCDB",
"}. c #D7D5D4",
"|. c #E1DFDF",
" X c #E9E9EA",
".X c #EFF1F1",
/* pixels */
"                                                                                                ",
"                                                                                                ",
"                                                                                                ",
"                                                                                                ",
"                                                                                                ",
"                                                                      D.                        ",
"                                                                                                ",
"                                                            D.D.                                ",
"                                                                    D.    D.                    ",
"                                                                                                ",
"                           X X                              S.<.                                ",
"                           X              8.                Z.: : C.      F.                    ",
"                 X{.].     X          e.8.8.8.8.              ; - 5                             ",
"                |.].].     X X      8.N.n.8.8.8.8.            V.7 -   C.S.                      ",
"              {.].[.}.       X    e.M.| | P.0.8.8.8.          F.  H 3 >                         ",
"              {.[.              7.w.W.( / | P.7.8.8.8.            A.7                           ",
"         X             X X      q.b.] K.K.L.(.n.e.0.e.              -                           ",
"         X.X.X  {.{.{.|. X.X  e.z.T T.).K.L.`.P.e.8.e.0.            %                           ",
"        |.I.G.6 5 5 5 5 H.}.  n.` ^ !._.[.J.)./.0.0.8.,.            #                           ",
"      }.G.& . O . . . . O P   N.` Y.K U.^.Q.Q.(.N.,.*.            J 9                           ",
"      8 O X X X . X X X X : !.w.c.).!.~.I.I.R. .m.%.O.            / / {                         ",
"      @ & X X X X X X X X # '   3.K.).W.R.} k.O.O.O.:.e.0.0.      / / [                         ",
"        R L > O .             8.:.3.] } ! F $.1.,.9.6.e.7.0.0.    ] / K.                        ",
"        ( / / ~             4.8.e.>.2.E y.f.Y x.0.9.:.0.0.7.0.    ^ K ~                         ",
"          ( { P i f f f f f -.;.,.>.M.! r.j.i.x.0.8.:.9.8.8.8.7.  k * <                         ",
"                u u w w w w ..o.=.0.c.i.r.j.p.x.0.e.;.*.7.8.0.8.@.d *                           ",
"                              +.=.q.) t.a.g.p.v.0.4.%.o.;.8.,.@.k i *                           ",
"                                O.k.Q a.t.j.h.T.9.O.O.o.%.=.X.h a w *                           ",
"                                  l.Q s.t.g.g.) 5.+.+.o.O...a e w w &                           ",
"                                  ] Q s.t.g.g.h.z.1.1.    X.e w w   @                           ",
"                                    p.f.r.f.g.d.) !                 @                           ",
"                                    f.g.r.f.g.g.d.f.                @                           ",
"                                    j.j.u.f.j.j.f.y.C               #                           ",
"                                    Y U U u.r.c l = =               $                           ",
"                                    3 7 4 , z C D u.s.              @                           ",
"                                  C x p v N S f.j.j.j.j.            @                           ",
"                                g.f.S y w m B r.g.g.g.g.g.          @                           ",
"                                j.y.B y w e B A s.g.g.g.g.g.        X                           ",
"                              j.a.A B y w w v B #.f.g.g.g.g.        X                           ",
"                            j.j.D B b i i w r n V t.g.g.g.g.g.      @                           ",
"                            j.r.B B y f k u w y V A d.j.g.g.g.      O                           ",
"                          g.a.A B b g j h u w r m V #.g.g.g.g.g.    +                           ",
"                          D V B M e s j f w w w t M Z #.#.          $                           ",
"                          B V V v r k h i     w w t i i f           -                           ",
"                            V b p a h d w     w w u f h j           O                           ",
"                              0 0 i d w         w u h j j j         O                           ",
"                              o o < 0 u         w w d h h j         @                           ",
"                              X X # ,             w < 2 2 2       - @                           ",
"                              X X X $             < o @ $ $       $                             ",
"                              X X + $               X X $ $       $                             ",
"                              X . @ $               X X @ $       +                             ",
"                              X X @ $                 X O $       O                             ",
"                              X X O $                 X X #       O                             ",
"                              X X O $                 X X @ $     X                             ",
"                          X X X X @ $                   X X @     X                             ",
"                        X X X X X . +                   X X X @   X                             ",
"                                                                                                ",
"                                                                                                ",
"                                                                                                ",
"                                                                                                ",
"                                                                                                ",
"                                                                                                ",
"                                                                                                "
};
